<svg width="45" height="39" viewBox="0 0 45 39" fill="none" xmlns="http://www.w3.org/2000/svg">
<g clip-path="url(#clip0_282_2284)">
<path d="M31.0585 2.44539C28.9179 0.62117 25.7343 0.949295 23.7694 2.97664L22.9999 3.76961L22.2304 2.97664C20.2694 0.949295 17.0819 0.62117 14.9413 2.44539C12.4882 4.53914 12.3593 8.29695 14.5546 10.5665L22.1132 18.3712C22.6015 18.8751 23.3944 18.8751 23.8827 18.3712L31.4413 10.5665C33.6405 8.29695 33.5116 4.53914 31.0585 2.44539V2.44539Z" fill="white"/>
</g>
<g clip-path="url(#clip1_282_2284)">
<path d="M15 23.9999C11 23.9999 6.6667 27.3333 5.00003 28.9999H1.00003C1.00003 28.9999 3.05176e-05 28.9999 3.05176e-05 29.9999V37.9999C3.05176e-05 38.9999 1.00003 38.9999 1.00003 38.9999H28C29.2802 38.9818 32.5002 37.4999 35.0001 35.9999C37.5 34.4999 44 28.4999 44.5 27.9999C45 27.4999 45.0383 25.9999 44 24.9999C42.9618 23.9999 41.236 24.764 41 24.9999C40.5 25.4999 35.0001 29.9999 35.0001 29.9999C33.4548 30.9532 32.58 31.2677 31 31.4999H20C18.8 30.2999 19.5 29.3333 20 28.9999H27.5C28 28.9999 29.5 28.4999 29.5 26.4999C29.5 24.4999 28 23.9999 27.5 23.9999H15Z" fill="white"/>
</g>
<defs>
<clipPath id="clip0_282_2284">
<rect width="20" height="20" fill="white" transform="translate(13)"/>
</clipPath>
<clipPath id="clip1_282_2284">
<rect width="45" height="15" fill="white" transform="translate(3.05176e-05 23.9999)"/>
</clipPath>
</defs>
</svg>
