<?xml version="1.0" encoding="utf-8"?>
<!-- Generator: Adobe Illustrator 24.1.1, SVG Export Plug-In . SVG Version: 6.00 Build 0)  -->
<svg version="1.1" xmlns="http://www.w3.org/2000/svg" xmlns:xlink="http://www.w3.org/1999/xlink" x="0px" y="0px"
	 viewBox="0 0 3543 3543" style="enable-background:new 0 0 3543 3543;" xml:space="preserve">
<style type="text/css">
	.st1{display:inline;fill:#F15B29;}
	.st2{display:inline;fill:#F15B29;}
	.st3{display:inline;}
	.st4{fill:#F15B29;}
</style>
<g id="LogoIMG">
	<g>
		<path class="st4" d="M2297,2053l-56,66h117c29-35,83-98,99-154s-3-158-8-187s8-45,8-45s72,96,92.88,155.67
			C2570.77,1948.35,2563,2043,2552,2047c-110,26-76,72-76,72h175c88-155,46-330,46-330c-104-106-99-254-99-254c19-46-11-277-11-277
			c96-85,131-173,131-173c85-170-64-278-64-278c-205-107-307,43-299,123s78,51,78,51c94-154,178-54,178-54c76,116-114,216-114,216
			c-27-153-803-106-803-106c-256-16-389-398-389-398c-16-72-83-122-83-122c13,75,0,109,0,109c0-56-69-77-69-77s19,53,0,106
			c0,0-96,16-112,88c0,0-21,48-184,72c0,0-30,94,93,131c0,0,253,24,256,227c0,0,42,331,133,432c0,0,118,176,115,333
			c-3,53-5,75-61,120c-19,19-38,63,13,61h195c0,0,26-40-11-216c-40-53-137-138-155-213c-5-48-11-135-16-181c0,0-83-49-16-150
			c0,0,14-74-5-93c0,0,43,13,51,52c0,0,136-25,181,0c0,0,50-60,85-52c0,0,13,32-8,80s20,157,42,157s281-58,513-2c0,0,38,12,27-94
			c0,0,8-184,144-176c0,0,154,3,101,139c0,0-35,15-43-19c0,0,19-72-29-64c0,0-77-13-88,131c0,0-21,87,22,113
			c10.64,66.78,21,122-32,203c-48,64-3,122-3,122C2384,1987,2297,2053,2297,2053z"/>
		<path class="st4" d="M1901,2111h59c0,0,217-129,219-229c0,0,39-155-118-172c0,0-63-8-120,52c0,0-72-71-118-52c0,0-155-22-129,172
			C1694,1882,1728,1997,1901,2111z"/>
		<g>
			<g>
				<path class="st4" d="M1834.3,1706.32c-16.47-1.47-32.93-0.47-49.14,2.76c-4.84,0.97-4.7,8.58,0,9.64
					c17.78,4.01,35.04-6.15,52.58-2.33c0.44-3.27,0.89-6.55,1.33-9.82c-21.3-1.57-43.73-3.02-63.97,5.14
					c-9.38,3.78-18.53,9.09-26.78,14.93c-7.36,5.21-13.6,11.53-16.17,20.38c-1.8,6.19,7.85,8.84,9.64,2.66
					c2.33-8.03,9.21-13.08,15.99-17.34c7.89-4.96,16.06-9.93,24.97-12.81c18.14-5.86,37.6-4.35,56.31-2.97
					c5.6,0.41,6.82-8.62,1.33-9.82c-17.77-3.88-35.07,6.28-52.58,2.33c0,3.21,0,6.43,0,9.64c15.34-3.06,30.91-3.79,46.49-2.4
					C1840.71,1716.9,1840.67,1706.89,1834.3,1706.32L1834.3,1706.32z"/>
			</g>
		</g>
		<g>
			<g>
				<path class="st4" d="M2378.81,1509.35c-1.79,7.89,2.59,13.99,8.21,19.04c3.6,3.23,13.3,8.87,12.27,14.71
					c3.05-0.4,6.09-0.8,9.14-1.19c-4.96-9.63-9.92-19.26-14.88-28.89c-2.95-5.72-11.58-0.67-8.63,5.05
					c4.96,9.63,9.92,19.26,14.88,28.89c1.87,3.64,8.39,3.04,9.14-1.19c1.41-8.06-2.94-14.02-8.7-19.16
					c-3.63-3.24-13.11-8.73-11.78-14.59C2389.88,1505.74,2380.24,1503.07,2378.81,1509.35L2378.81,1509.35z"/>
			</g>
		</g>
		<g>
			<g>
				<path class="st4" d="M2382.88,1523.27c13.69,15.44,18.37,36.16,20.22,56.19c2.13,23.14,2.01,46.57,2.72,69.79
					c0.2,6.42,10.2,6.45,10,0c-0.76-24.76-0.41-49.87-3.21-74.51c-2.42-21.29-8.17-42.2-22.66-58.55
					C2385.68,1511.37,2378.62,1518.47,2382.88,1523.27L2382.88,1523.27z"/>
			</g>
		</g>
		<g>
			<g>
				<path class="st4" d="M2291.08,1446.8c-7.56-25.16-10.51-50.34-4.47-76.16c5.68-24.32,16.83-46.86,27.9-69.09
					c2.86-5.74-5.76-10.81-8.63-5.05c-11.7,23.49-23.56,47.44-29.31,73.22c-6.01,26.97-3.01,53.48,4.87,79.73
					C2283.28,1455.61,2292.94,1452.99,2291.08,1446.8L2291.08,1446.8z"/>
			</g>
		</g>
		<g>
			<g>
				<path class="st4" d="M2709.45,874.16c-9.09-30.72-31.96-55.59-61.55-67.69c-5.95-2.43-8.54,7.24-2.66,9.64
					c26.22,10.72,46.55,33.62,54.56,60.7C2701.63,882.97,2711.28,880.35,2709.45,874.16L2709.45,874.16z"/>
			</g>
		</g>
		<g>
			<g>
				<path class="st4" d="M2683.74,843.56c25.47,19.45,38.65,52.15,35.06,83.79c-0.73,6.38,9.28,6.33,10,0
					c4.02-35.4-11.85-70.92-40.01-92.42C2683.67,831.02,2678.69,839.7,2683.74,843.56L2683.74,843.56z"/>
			</g>
		</g>
		<g>
			<g>
				<path class="st4" d="M2737.53,931.13c-1.41-18.48-11.43-33.78-21.88-48.48c-3.7-5.2-12.37-0.21-8.63,5.05
					c9.26,13.03,19.26,26.99,20.51,43.44C2728.02,937.51,2738.02,937.56,2737.53,931.13L2737.53,931.13z"/>
			</g>
		</g>
		<g>
			<g>
				<path class="st4" d="M2739.18,961.15c-2.76-27.8-9.09-55.01-19.16-81.08c-2.29-5.94-11.97-3.36-9.64,2.66
					c9.73,25.19,16.14,51.54,18.8,78.42C2729.81,967.5,2739.81,967.56,2739.18,961.15L2739.18,961.15z"/>
			</g>
		</g>
		<g>
			<g>
				<path class="st4" d="M2712.59,878.23c18.94,28.65,18.12,64.36,17.08,97.34c-0.2,6.44,9.8,6.43,10,0
					c1.09-34.72,1.47-72.27-18.45-102.39C2717.69,867.84,2709.02,872.85,2712.59,878.23L2712.59,878.23z"/>
			</g>
		</g>
		<g>
			<g>
				<path class="st4" d="M2469.69,1116.48c16.69,9.67,31.15,22.65,42.36,38.37c3.7,5.19,12.36,0.24,8.63-5.05
					c-8.27-11.73-18.9-21.28-31.62-27.97c-5.69-2.99-10.75,5.64-5.05,8.63c11.17,5.87,20.75,14.05,28.03,24.38
					c2.88-1.68,5.76-3.36,8.63-5.05c-12.22-17.13-27.72-31.4-45.95-41.95C2469.16,1104.61,2464.12,1113.25,2469.69,1116.48
					L2469.69,1116.48z"/>
			</g>
		</g>
		<g>
			<g>
				<path class="st4" d="M2530.17,1126.59c-32.87-14.1-66.06-27.44-99.56-39.97c-6.03-2.26-8.64,7.4-2.66,9.64
					c32.69,12.23,65.09,25.21,97.17,38.96C2530.97,1137.73,2536.07,1129.12,2530.17,1126.59L2530.17,1126.59z"/>
			</g>
		</g>
		<g>
			<g>
				<path class="st4" d="M2517.69,1135.21c-10.33-2.1-19.92-5.86-28.89-11.4c-1.28,3.05-2.57,6.09-3.85,9.14
					c8.81,3.61,17.61,7.23,26.42,10.84c0.89-3.21,1.77-6.43,2.66-9.64c-7.58-2.6-14.69-6.39-20.99-11.36
					c-0.74,2.79-1.47,5.57-2.21,8.36c3.49-0.89,6.42-0.36,9.49,1.53c1.28-3.05,2.57-6.09,3.85-9.14c-7-1.92-14.12,1.13-18.19,7.05
					c-1.9,2.77-3.06,6.06-3,9.44c0.03,1.75,0.44,3.38,1.03,5.01c0.42,1.15,2.51,4.21,1.73,5.34c3.05,1.28,6.09,2.57,9.14,3.85
					c0.49-3.29,1.38-6.16,3.02-9.07c3.17-5.61-5.47-10.66-8.63-5.05c-2.04,3.61-3.42,7.36-4.03,11.46
					c-0.82,5.54,5.75,8.71,9.14,3.85c3.64-5.22,0.03-9.13-1.17-14.29c-1.08-4.64,3.77-9.21,8.31-7.96c5.52,1.51,8.66-6.17,3.85-9.14
					c-5.3-3.27-11.17-4.08-17.19-2.54c-3.35,0.86-5.22,5.98-2.21,8.36c7.73,6.1,16.08,10.74,25.4,13.93
					c6.21,2.13,8.45-7.27,2.66-9.64c-8.81-3.61-17.61-7.23-26.42-10.84c-5.39-2.21-8.49,6.27-3.85,9.14
					c9.64,5.95,20.18,10.15,31.28,12.41C2521.31,1146.13,2524,1136.49,2517.69,1135.21L2517.69,1135.21z"/>
			</g>
		</g>
		<g>
			<g>
				<path class="st4" d="M2532.46,1136.32c-12.47-5.72-24.93-11.43-37.4-17.15c-0.84,3.11-1.68,6.21-2.52,9.32
					c5.16,0.26,9.7,2.21,13.48,5.72c0.74-2.79,1.47-5.57,2.21-8.36c-8.65,1.62-17.31,1.34-25.86-0.7c-6.26-1.49-8.93,8.15-2.66,9.64
					c10.35,2.47,20.72,2.66,31.17,0.7c3.7-0.69,4.82-5.93,2.21-8.36c-5.79-5.39-12.65-8.26-20.55-8.65
					c-4.77-0.24-7.07,7.23-2.52,9.32c12.47,5.72,24.93,11.43,37.4,17.15C2533.22,1147.62,2538.31,1139,2532.46,1136.32
					L2532.46,1136.32z"/>
			</g>
		</g>
		<g>
			<g>
				<path class="st4" d="M2432.08,1089.35c33.95,12.19,66.22,28.55,96.23,48.56c5.37,3.58,10.38-5.08,5.05-8.63
					c-30.73-20.5-63.86-37.08-98.62-49.57C2428.67,1077.53,2426.06,1087.18,2432.08,1089.35L2432.08,1089.35z"/>
			</g>
		</g>
		<g>
			<g>
				<path class="st4" d="M2433.88,1080.23c-41.7-15.94-86.01-24.39-130.65-25.07c-6.44-0.1-6.44,9.9,0,10
					c43.8,0.67,87.08,9.07,127.99,24.71C2437.24,1092.17,2439.84,1082.51,2433.88,1080.23L2433.88,1080.23z"/>
			</g>
		</g>
		<g>
			<g>
				<path class="st4" d="M2599.48,1565.55c-6.06-18.63-6.18-38.23-0.33-56.93c-3.27-0.44-6.55-0.89-9.82-1.33
					c0.22,21.83,0.43,43.66,0.65,65.48c0.06,6.43,10.06,6.45,10,0c-0.22-21.83-0.43-43.66-0.65-65.48c-0.06-5.71-8.14-6.7-9.82-1.33
					c-6.35,20.27-6.24,42.05,0.33,62.25C2591.82,1574.31,2601.48,1571.7,2599.48,1565.55L2599.48,1565.55z"/>
			</g>
		</g>
	</g>
</g>
<g id="Text">
	<g>
		<g>
			<path class="st4" d="M618.13,2630.59c-16.73-13.59-29.49-33.39-38.27-59.4c-8.79-26.01-13.18-57.42-13.18-94.23v-128.11
				c0-36.81,4.39-68.23,13.18-94.23c8.79-26.01,21.55-45.86,38.27-59.56c16.73-13.7,36.86-20.55,60.39-20.55
				c19.42,0,36.79,6.32,52.1,18.94c15.31,12.63,27.96,30.98,37.96,55.06c9.99,24.08,16.9,53.14,20.73,87.17h-60.39
				c-2.27-15.41-5.78-28.57-10.53-39.49c-4.75-10.92-10.49-19.27-17.22-25.04c-6.73-5.78-14.28-8.67-22.65-8.67
				c-10.92,0-20.2,3.37-27.85,10.11c-7.66,6.74-13.5,16.59-17.54,29.54c-4.04,12.95-6.06,28.53-6.06,46.71v128.11
				c0,18.2,2.02,33.71,6.06,46.56c4.04,12.84,9.89,22.63,17.54,29.38c7.65,6.74,16.94,10.11,27.85,10.11
				c8.5,0,16.16-2.83,22.96-8.51c6.8-5.67,12.55-13.97,17.22-24.88s8.08-24.19,10.21-39.81h60.39
				c-3.97,34.03-10.95,63.09-20.94,87.17s-22.61,42.44-37.85,55.06c-15.24,12.63-32.57,18.94-51.99,18.94
				C654.99,2650.97,634.86,2644.18,618.13,2630.59z"/>
			<path class="st4" d="M842.87,2633.96c-14.25-11.34-25.09-27.88-32.53-49.61c-7.44-21.72-11.16-47.89-11.16-78.5v-54.26
				c0-30.18,3.72-56.03,11.16-77.54c7.44-21.51,18.29-37.88,32.53-49.12c14.25-11.24,31.43-16.86,51.56-16.86
				c20.13,0,37.32,5.62,51.56,16.86c14.25,11.24,25.09,27.61,32.53,49.12c7.44,21.51,11.16,47.36,11.16,77.54v55.22
				c0,30.4-3.72,56.35-11.16,77.86c-7.44,21.51-18.29,37.94-32.53,49.29c-14.25,11.35-31.44,17.02-51.56,17.02
				C874.3,2650.97,857.11,2645.31,842.87,2633.96z M921.65,2550.64c6.52-10.38,9.78-24.99,9.78-43.83v-55.22
				c0-18.62-3.26-33.07-9.78-43.34c-6.52-10.28-15.67-15.41-27.43-15.41c-11.63,0-20.66,5.14-27.11,15.41
				c-6.45,10.27-9.67,24.72-9.67,43.34v55.22c0,18.84,3.19,33.45,9.57,43.83c6.38,10.38,15.45,15.57,27.22,15.57
				C905.98,2566.21,915.13,2561.03,921.65,2550.64z"/>
			<path class="st4" d="M1049.63,2632.83c-14.96-12.09-26.33-29.7-34.13-52.81c-7.8-23.12-11.69-50.94-11.69-83.48v-35.64
				c0-32.32,3.9-59.88,11.69-82.68c7.79-22.79,19.17-40.18,34.13-52.17c14.95-11.99,32.92-17.98,53.9-17.98
				c12.05,0,23.42,2.09,34.13,6.26c10.7,4.17,20.31,10.22,28.81,18.14c8.51,7.92,15.59,17.55,21.26,28.9l-37.64,55.22
				c-5.39-7.49-11.69-13.32-18.92-17.5s-14.81-6.26-22.75-6.26c-14.74,0-26.15,5.94-34.23,17.82
				c-8.08,11.88-12.12,28.63-12.12,50.25v35.64c0,22.26,4.04,39.44,12.12,51.53c8.08,12.1,19.49,18.14,34.23,18.14
				c8.08,0,15.73-2.25,22.96-6.74c7.23-4.5,13.47-10.92,18.71-19.26l37.64,58.43c-5.81,11.13-12.97,20.6-21.48,28.41
				c-8.51,7.82-18.07,13.76-28.71,17.82c-10.63,4.06-21.97,6.1-34.02,6.1C1082.55,2650.97,1064.59,2644.93,1049.63,2632.83z"/>
			<path class="st4" d="M1183.78,2312.89h179.89v84.76h-179.89V2312.89z M1244.6,2347.89h58.26v298.27h-58.26V2347.89z"/>
			<path class="st4" d="M1379.91,2312.89h58.26v468.76h-58.26V2312.89z M1456.04,2636.04c-9.36-9.95-16.3-24.03-20.84-42.22
				l2.98-76.09c0,10.92,1.28,20.23,3.83,27.93c2.55,7.71,6.27,13.6,11.16,17.66c4.89,4.07,10.81,6.1,17.75,6.1
				c10.91,0,19.38-5.46,25.41-16.38c6.02-10.92,9.04-26.33,9.04-46.23v-52.97c0-20.33-3.01-36.12-9.04-47.36
				c-6.03-11.24-14.5-16.86-25.41-16.86c-6.95,0-12.86,2.09-17.75,6.26s-8.61,10.22-11.16,18.14c-2.55,7.92-3.83,17.55-3.83,28.89
				l-4.47-73.85c5.95-19.47,13.78-34.51,23.5-45.11c9.71-10.6,20.45-15.89,32.21-15.89c15.59,0,28.95,5.67,40.08,17.02
				c11.13,11.35,19.6,27.93,25.41,49.77c5.81,21.83,8.72,48.06,8.72,78.66v53.3c0,30.4-2.91,56.35-8.72,77.86
				c-5.81,21.51-14.28,37.94-25.41,49.29c-11.13,11.35-24.49,17.02-40.08,17.02C1476.52,2650.97,1465.39,2646,1456.04,2636.04z"/>
			<path class="st4" d="M1591.04,2625.45c-11.69-17.02-17.54-42.86-17.54-77.54c0-32.96,6.55-57.68,19.67-74.17
				c13.11-16.48,32.78-24.72,59.01-24.72h55.28l2.98,67.1h-58.05c-8.79,0-15.38,2.62-19.77,7.87c-4.4,5.25-6.59,13.22-6.59,23.92
				c0,10.92,2.76,19,8.29,24.24c5.53,5.25,13.89,7.87,25.09,7.87c15.59,0,27.18-2.67,34.77-8.03c7.58-5.35,11.38-13.7,11.38-25.04
				l4.46,48.48c-0.85,11.99-4.5,22.15-10.95,30.5c-6.45,8.35-14.53,14.61-24.24,18.78c-9.71,4.17-19.95,6.26-30.73,6.26
				C1620.42,2650.97,1602.73,2642.47,1591.04,2625.45z M1705.54,2434.9c0-15.41-3.4-27.29-10.21-35.64s-16.45-12.52-28.92-12.52
				c-8.22,0-16.37,2.04-24.45,6.1c-8.08,4.07-15.24,9.74-21.48,17.02l-36.15-53.62c8.79-15.2,20.41-27.02,34.87-35.48
				c14.46-8.45,30.48-12.68,48.06-12.68c19.28,0,35.72,4.87,49.33,14.61c13.61,9.74,23.99,23.87,31.15,42.38
				c7.16,18.52,10.74,40.83,10.74,66.94v214.15h-52.95V2434.9z"/>
			<path class="st4" d="M1774.31,2564.61h216.67v81.55h-216.67V2564.61z M1774.31,2564.61h51.88v165.35h-51.88V2564.61z
				 M1782.39,2564.61h5.1c7.37,0,12.87-3.37,16.48-10.11s5.99-16.32,7.12-28.74c1.13-12.41,1.7-29.32,1.7-50.73v-162.14h58.26
				v183.97c0,35.32-5.92,62.08-17.75,80.27c-11.84,18.2-28.81,27.29-50.93,27.29h-5.1L1782.39,2564.61z M1837.67,2312.89h106.53
				v81.55h-106.53V2312.89z M1921.24,2312.89h58.26v333.27h-58.26V2312.89z M1957.17,2564.61h51.88v165.35h-51.88V2564.61z"/>
			<path class="st4" d="M2031.79,2625.45c-11.7-17.02-17.54-42.86-17.54-77.54c0-32.96,6.56-57.68,19.67-74.17
				c13.11-16.48,32.78-24.72,59.01-24.72h55.28l2.98,67.1h-58.05c-8.79,0-15.38,2.62-19.78,7.87c-4.4,5.25-6.59,13.22-6.59,23.92
				c0,10.92,2.76,19,8.29,24.24c5.53,5.25,13.89,7.87,25.09,7.87c15.59,0,27.18-2.67,34.77-8.03c7.58-5.35,11.38-13.7,11.38-25.04
				l4.46,48.48c-0.85,11.99-4.5,22.15-10.95,30.5c-6.45,8.35-14.53,14.61-24.24,18.78c-9.71,4.17-19.95,6.26-30.72,6.26
				C2061.16,2650.97,2043.48,2642.47,2031.79,2625.45z M2146.29,2434.9c0-15.41-3.4-27.29-10.21-35.64s-16.45-12.52-28.92-12.52
				c-8.22,0-16.37,2.04-24.45,6.1c-8.08,4.07-15.24,9.74-21.48,17.02l-36.15-53.62c8.79-15.2,20.41-27.02,34.87-35.48
				c14.46-8.45,30.48-12.68,48.05-12.68c19.28,0,35.72,4.87,49.33,14.61c13.61,9.74,23.99,23.87,31.15,42.38
				c7.16,18.52,10.74,40.83,10.74,66.94v214.15h-52.95V2434.9z"/>
			<path class="st4" d="M2223.98,2312.89h58.26v333.27h-58.26V2312.89z M2255.24,2441.64h135.45v81.55h-135.45V2441.64z
				 M2357.09,2312.89h58.26v333.27h-58.26V2312.89z"/>
			<path class="st4" d="M2576.62,2645.84v-220.57l5.1,8.35l-89.09,212.23h-50.39v-332.95h55.71v226.03l-5.1-8.35l89.52-217.68h49.97
				v332.95H2576.62z"/>
			<path class="st4" d="M2699.28,2633.48c-15.1-11.66-26.62-28.68-34.55-51.05c-7.94-22.36-11.91-49.28-11.91-80.75v-37.56
				c0-32.96,3.79-61.11,11.38-84.44c7.58-23.33,18.64-41.1,33.17-53.3c14.53-12.2,32.07-18.3,52.63-18.3
				c19.28,0,35.79,7.28,49.54,21.83c13.75,14.56,24.2,35.69,31.36,63.41c7.16,27.72,10.74,61.16,10.74,100.33v21.83h-150.97v-59.4
				h97.81l-0.64-7.71c-1.56-19.26-5.56-34.14-12.01-44.63c-6.45-10.48-15.06-15.73-25.83-15.73c-14.04,0-24.92,6.32-32.64,18.94
				c-7.73,12.63-11.59,30.5-11.59,53.62v42.38c0,22.69,4.22,40.24,12.65,52.65c8.43,12.42,20.23,18.62,35.4,18.62
				c7.79,0,15.52-2.09,23.18-6.26s14.6-10.11,20.84-17.82l38.06,51.05c-11.48,15.84-24.38,28.09-38.7,36.76
				c-14.32,8.67-28.78,13-43.38,13C2732.56,2650.97,2714.38,2645.14,2699.28,2633.48z"/>
			<path class="st4" d="M2864.27,2179.33h58.26v466.83h-58.26V2179.33z M2891.27,2372.29h180.1v84.76h-180.1V2372.29z
				 M3033.52,2179.33h58.26v466.83h-58.26V2179.33z"/>
			<path class="st4" d="M3127.17,2179.33h58.26v466.83h-58.26V2179.33z M3154.17,2372.29h180.1v84.76h-180.1V2372.29z
				 M3296.42,2179.33h58.26v466.83h-58.26V2179.33z"/>
		</g>
	</g>
</g>
<g id="Text2">
	<g>
		<g>
			<path class="st4" d="M808.37,2207.97c0-8.64,1.54-15.63,4.61-20.98c3.07-5.35,7.84-9.29,14.31-11.84
				c6.47-2.55,14.91-3.88,25.33-3.99c2.52-0.05,4.58-0.3,6.16-0.75c1.58-0.44,2.75-1.13,3.49-2.08c0.74-0.94,1.12-2.16,1.12-3.66
				h27.08c0,6.09-1.25,11.04-3.74,14.83c-2.49,3.79-6.39,6.59-11.69,8.39c-5.31,1.8-12.23,2.7-20.77,2.7
				c-4.79,0-8.67,0.65-11.65,1.95c-2.98,1.3-5.16,3.35-6.55,6.15c-1.39,2.8-2.09,6.44-2.09,10.93v29.83h-25.62V2207.97z
				 M828.31,2282.34c-6.5-2.94-11.45-7.21-14.85-12.84c-3.4-5.62-5.09-12.39-5.09-20.32v-15.7l20.77-12.55
				c1.62-6.48,4.69-11.37,9.22-14.67c4.53-3.3,10.64-4.94,18.34-4.94c8.09,0,15.02,1.45,20.82,4.36c5.79,2.91,10.2,7.15,13.25,12.71
				c3.04,5.57,4.56,12.26,4.56,20.07v10.97c0,7.87-1.7,14.58-5.09,20.15s-8.35,9.82-14.85,12.75c-6.5,2.94-14.35,4.4-23.53,4.4
				C842.66,2286.74,834.81,2285.27,828.31,2282.34z M864.27,2260.77c2.98-2.69,4.46-6.47,4.46-11.34v-10.97
				c0-4.82-1.49-8.56-4.46-11.22c-2.98-2.66-7.15-3.99-12.52-3.99c-5.31,0-9.43,1.33-12.37,3.99c-2.94,2.66-4.42,6.4-4.42,11.22
				v10.97c0,4.88,1.46,8.66,4.37,11.34c2.91,2.69,7.05,4.03,12.42,4.03C857.12,2264.8,861.29,2263.46,864.27,2260.77z"/>
			<path class="st4" d="M897.88,2264.3c4.27,0,7.58-1.15,9.95-3.45c2.36-2.3,3.54-5.55,3.54-9.76v-51.85h24.84v54.18
				c0,6.92-1.42,12.84-4.27,17.74c-2.85,4.9-7,8.64-12.47,11.22c-5.47,2.58-12.02,3.86-19.65,3.86h-1.94V2264.3z M925.64,2199.24
				h52.31v21.94h-52.31V2199.24z M962.61,2199.24h26.59v86.25h-26.59V2199.24z"/>
			<path class="st4" d="M1004.62,2280.13c-5.34-4.4-8.01-11.09-8.01-20.07c0-8.53,2.99-14.93,8.98-19.19
				c5.98-4.26,14.96-6.4,26.93-6.4h25.23l1.36,17.37h-26.49c-4.01,0-7.02,0.68-9.02,2.04c-2.01,1.36-3.01,3.42-3.01,6.19
				c0,2.83,1.26,4.92,3.78,6.27c2.52,1.36,6.34,2.04,11.45,2.04c7.12,0,12.4-0.69,15.87-2.08c3.46-1.38,5.19-3.54,5.19-6.48
				l2.04,12.55c-0.39,3.1-2.05,5.73-5,7.89c-2.94,2.16-6.63,3.78-11.06,4.86c-4.43,1.08-9.11,1.62-14.02,1.62
				C1018.03,2286.74,1009.96,2284.54,1004.62,2280.13z M1056.88,2230.82c0-3.99-1.55-7.06-4.66-9.22s-7.51-3.24-13.2-3.24
				c-3.75,0-7.47,0.53-11.16,1.58c-3.69,1.05-6.96,2.52-9.8,4.4l-16.5-13.88c4.01-3.93,9.32-6.99,15.92-9.18
				c6.6-2.19,13.91-3.28,21.93-3.28c8.8,0,16.3,1.26,22.51,3.78c6.21,2.52,10.95,6.18,14.22,10.97c3.27,4.79,4.9,10.57,4.9,17.33
				v55.42h-24.16V2230.82z"/>
			<path class="st4" d="M1092.34,2199.24h26.59v86.25h-26.59V2199.24z M1102.05,2199.24h58.71v21.94h-58.71V2199.24z"/>
			<path class="st4" d="M1179.38,2282.34c-6.5-2.94-11.45-7.21-14.85-12.84c-3.4-5.62-5.09-12.39-5.09-20.32v-14.04
				c0-7.81,1.7-14.5,5.09-20.07c3.4-5.57,8.35-9.8,14.85-12.71s14.35-4.36,23.53-4.36c9.19,0,17.03,1.45,23.53,4.36
				s11.45,7.15,14.85,12.71c3.4,5.57,5.09,12.26,5.09,20.07v14.29c0,7.87-1.7,14.58-5.09,20.15s-8.35,9.82-14.85,12.75
				c-6.5,2.94-14.35,4.4-23.53,4.4C1193.73,2286.74,1185.88,2285.27,1179.38,2282.34z M1215.33,2260.77
				c2.98-2.69,4.46-6.47,4.46-11.34v-14.29c0-4.82-1.49-8.56-4.46-11.22c-2.98-2.66-7.15-3.99-12.52-3.99
				c-5.31,0-9.43,1.33-12.37,3.99c-2.94,2.66-4.42,6.4-4.42,11.22v14.29c0,4.88,1.46,8.66,4.37,11.34
				c2.91,2.69,7.05,4.03,12.42,4.03C1208.19,2264.8,1212.36,2263.46,1215.33,2260.77z"/>
			<path class="st4" d="M1250.89,2199.24h82.1v21.94h-82.1V2199.24z M1278.65,2208.3h26.59v77.19h-26.59V2208.3z"/>
			<path class="st4" d="M1340.41,2199.24h26.49v86.25h-26.49V2199.24z M1353.99,2267.71h32.41c3.95,0,6.99-0.8,9.12-2.41
				c2.13-1.61,3.2-3.85,3.2-6.73v-0.25c0-2.83-1.07-5.01-3.2-6.56c-2.14-1.55-5.18-2.33-9.12-2.33h-32.41v-17.78h32.41
				c3.36,0,5.95-0.65,7.76-1.95c1.81-1.3,2.72-3.14,2.72-5.53c0-2.27-0.91-4.03-2.72-5.28c-1.81-1.25-4.33-1.87-7.57-1.87h-32.61
				v-17.78h38.14c10.03,0,17.79,1.87,23.29,5.61c5.5,3.74,8.25,9.02,8.25,15.83c0,5.26-1.65,9.6-4.95,13
				c-3.3,3.41-7.96,5.58-13.97,6.52c6.6,1.22,11.71,3.84,15.33,7.85c3.62,4.02,5.43,9.04,5.43,15.08v0.25
				c0,7.04-2.93,12.48-8.78,16.33c-5.86,3.85-14.15,5.77-24.89,5.77h-37.85V2267.71z"/>
			<path class="st4" d="M1449.96,2282.34c-6.5-2.94-11.45-7.21-14.85-12.84c-3.4-5.62-5.09-12.39-5.09-20.32v-14.04
				c0-7.81,1.7-14.5,5.09-20.07c3.4-5.57,8.35-9.8,14.85-12.71s14.35-4.36,23.53-4.36c9.19,0,17.03,1.45,23.53,4.36
				s11.45,7.15,14.85,12.71c3.4,5.57,5.09,12.26,5.09,20.07v14.29c0,7.87-1.7,14.58-5.09,20.15s-8.35,9.82-14.85,12.75
				c-6.5,2.94-14.35,4.4-23.53,4.4C1464.31,2286.74,1456.46,2285.27,1449.96,2282.34z M1485.91,2260.77
				c2.98-2.69,4.46-6.47,4.46-11.34v-14.29c0-4.82-1.49-8.56-4.46-11.22c-2.98-2.66-7.15-3.99-12.52-3.99
				c-5.31,0-9.43,1.33-12.37,3.99c-2.94,2.66-4.42,6.4-4.42,11.22v14.29c0,4.88,1.46,8.66,4.37,11.34
				c2.91,2.69,7.05,4.03,12.42,4.03C1478.77,2264.8,1482.94,2263.46,1485.91,2260.77z"/>
			<path class="st4" d="M1526.32,2199.24h26.59v121.31h-26.59V2199.24z M1561.07,2282.88c-4.27-2.58-7.44-6.22-9.51-10.93
				l1.36-19.69c0,2.83,0.58,5.23,1.75,7.23s2.86,3.52,5.09,4.57c2.23,1.05,4.93,1.58,8.1,1.58c4.98,0,8.85-1.41,11.6-4.24
				c2.75-2.83,4.12-6.81,4.12-11.96v-13.71c0-5.26-1.38-9.35-4.12-12.26c-2.75-2.91-6.62-4.36-11.6-4.36c-3.17,0-5.87,0.54-8.1,1.62
				c-2.23,1.08-3.93,2.65-5.09,4.69c-1.16,2.05-1.75,4.54-1.75,7.48l-2.04-19.11c2.72-5.04,6.29-8.93,10.72-11.67
				c4.43-2.74,9.33-4.11,14.7-4.11c7.12,0,13.21,1.47,18.29,4.4c5.08,2.94,8.94,7.23,11.6,12.88c2.65,5.65,3.98,12.44,3.98,20.36
				v13.79c0,7.87-1.33,14.58-3.98,20.15c-2.65,5.57-6.52,9.82-11.6,12.75c-5.08,2.94-11.18,4.4-18.29,4.4
				C1570.41,2286.74,1565.34,2285.45,1561.07,2282.88z"/>
			<path class="st4" d="M1680.86,2285.41v-57.08l2.33,2.16l-40.66,54.92h-23v-86.17h25.43v58.5l-2.33-2.16l40.86-56.34h22.81v86.17
				H1680.86z"/>
			<path class="st4" d="M1713.7,2199.24h82.1v21.94h-82.1V2199.24z M1741.45,2208.3h26.59v77.19h-26.59V2208.3z"/>
			<path class="st4" d="M1821.5,2282.21c-6.89-3.02-12.15-7.42-15.77-13.21c-3.62-5.79-5.43-12.75-5.43-20.9v-9.72
				c0-8.53,1.73-15.81,5.19-21.85c3.46-6.04,8.51-10.64,15.14-13.79c6.63-3.16,14.64-4.74,24.02-4.74c8.8,0,16.33,1.88,22.61,5.65
				c6.27,3.77,11.05,9.24,14.31,16.41c3.27,7.17,4.9,15.83,4.9,25.97v5.65h-68.9v-15.37h44.64l-0.29-1.99
				c-0.71-4.99-2.54-8.83-5.48-11.55c-2.94-2.71-6.88-4.07-11.79-4.07c-6.41,0-11.37,1.63-14.9,4.9c-3.53,3.27-5.29,7.89-5.29,13.88
				v10.97c0,5.87,1.92,10.42,5.77,13.63c3.85,3.21,9.23,4.82,16.16,4.82c3.56,0,7.08-0.54,10.58-1.62c3.49-1.08,6.66-2.62,9.51-4.61
				l17.37,13.21c-5.24,4.1-11.13,7.27-17.66,9.51c-6.54,2.24-13.13,3.37-19.8,3.37C1836.69,2286.74,1828.39,2285.23,1821.5,2282.21z
				"/>
			<path class="st4" d="M1888.07,2264.3c4.27,0,7.58-1.15,9.95-3.45c2.36-2.3,3.54-5.55,3.54-9.76v-51.85h24.84v54.18
				c0,6.92-1.42,12.84-4.27,17.74c-2.85,4.9-7,8.64-12.47,11.22c-5.47,2.58-12.02,3.86-19.65,3.86h-1.94V2264.3z M1915.82,2199.24
				h52.31v21.94h-52.31V2199.24z M1952.79,2199.24h26.59v86.25h-26.59V2199.24z"/>
			<path class="st4" d="M1991.65,2199.24h26.59v86.25h-26.59V2199.24z M2005.14,2263.56h33.58c3.17,0,5.69-0.88,7.57-2.66
				c1.88-1.77,2.81-4.13,2.81-7.06c0-1.94-0.44-3.66-1.31-5.15c-0.87-1.5-2.09-2.64-3.64-3.45c-1.55-0.8-3.36-1.21-5.43-1.21h-33.58
				v-19.44h34.74c6.92,0,13.04,1.26,18.34,3.78c5.3,2.52,9.43,6.09,12.37,10.72c2.94,4.63,4.42,9.96,4.42,16
				c0,6.04-1.46,11.36-4.37,15.95c-2.91,4.6-7.02,8.16-12.32,10.68c-5.31,2.52-11.45,3.78-18.44,3.78h-34.74V2263.56z"/>
			<path class="st4" d="M2081.94,2199.24h26.59v86.25h-26.59V2199.24z M2096.21,2232.56h61.82v21.11h-61.82V2232.56z
				 M2142.69,2199.24h26.59v86.25h-26.59V2199.24z"/>
			<path class="st4" d="M2181.55,2199.24h26.59v86.25h-26.59V2199.24z M2188.24,2263.56h33.58c3.17,0,5.69-0.88,7.57-2.66
				c1.88-1.77,2.81-4.13,2.81-7.06c0-1.94-0.44-3.66-1.31-5.15c-0.87-1.5-2.09-2.64-3.64-3.45c-1.55-0.8-3.36-1.21-5.43-1.21h-33.58
				v-19.44h34.74c6.92,0,13.04,1.26,18.34,3.78c5.3,2.52,9.43,6.09,12.37,10.72c2.94,4.63,4.42,9.96,4.42,16
				c0,6.04-1.46,11.36-4.37,15.95c-2.91,4.6-7.02,8.16-12.32,10.68c-5.31,2.52-11.45,3.78-18.44,3.78h-34.74V2263.56z
				 M2269.37,2199.24h26.59v86.25h-26.59V2199.24z"/>
			<path class="st4" d="M2367.14,2285.41v-57.08l2.33,2.16l-40.66,54.92h-23v-86.17h25.43v58.5l-2.33-2.16l40.86-56.34h22.81v86.17
				H2367.14z M2324.44,2177.1c-5.31-5.51-7.96-13.78-7.96-24.8h21.74c0,5.54,0.84,9.68,2.52,12.42c1.68,2.74,4.2,4.11,7.57,4.11
				h1.75c3.36,0,5.89-1.37,7.57-4.11c1.68-2.74,2.52-6.88,2.52-12.42h21.74c0,11.02-2.65,19.29-7.96,24.8
				c-5.3,5.51-13.26,8.27-23.87,8.27h-1.75C2337.7,2185.37,2329.74,2182.61,2324.44,2177.1z"/>
			<path class="st4" d="M2447.76,2277.89c-4.92-5.07-7.38-12.2-7.38-21.4v-28.42c0-9.2,2.46-16.3,7.38-21.31
				c4.92-5.01,11.87-7.52,20.87-7.52c8.02,0,14.23,2.8,18.63,8.39c4.4,5.6,6.6,13.52,6.6,23.76v24.84c0,9.31-2.2,16.51-6.6,21.6
				c-4.4,5.1-10.61,7.64-18.63,7.64C2459.63,2285.49,2452.68,2282.96,2447.76,2277.89z M2484.74,2260.19
				c1.94-2.24,2.91-5.41,2.91-9.51v-16.78c0-4.1-0.97-7.24-2.91-9.43c-1.94-2.19-4.69-3.28-8.25-3.28c-3.04,0-5.39,1.11-7.04,3.32
				c-1.65,2.22-2.47,5.35-2.47,9.39v16.78c0,4.1,0.83,7.27,2.47,9.51c1.65,2.24,3.99,3.37,7.04,3.37
				C2480.04,2263.56,2482.79,2262.44,2484.74,2260.19z M2487.55,2174.23h26.59v136.27h-26.59V2174.23z M2514.48,2277.85
				c-4.37-5.1-6.55-12.3-6.55-21.6v-24.84c0-10.25,2.18-18.17,6.55-23.76c4.37-5.59,10.53-8.39,18.49-8.39
				c9.06,0,16.06,2.51,21.01,7.52c4.95,5.01,7.42,12.12,7.42,21.31v28.42c0,9.2-2.47,16.33-7.42,21.4
				c-4.95,5.07-11.95,7.6-21.01,7.6C2525.01,2285.49,2518.85,2282.95,2514.48,2277.85z M2532.24,2260.19
				c1.71-2.24,2.57-5.41,2.57-9.51v-16.78c0-4.04-0.86-7.17-2.57-9.39c-1.71-2.21-4.09-3.32-7.13-3.32c-3.49,0-6.2,1.11-8.1,3.32
				c-1.91,2.22-2.86,5.35-2.86,9.39v16.78c0,4.1,0.95,7.27,2.86,9.51c1.91,2.24,4.61,3.37,8.1,3.37
				C2528.15,2263.56,2530.52,2262.44,2532.24,2260.19z"/>
			<path class="st4" d="M2587.79,2282.34c-6.5-2.94-11.45-7.21-14.85-12.84c-3.4-5.62-5.09-12.39-5.09-20.32v-14.04
				c0-7.81,1.7-14.5,5.09-20.07c3.4-5.57,8.35-9.8,14.85-12.71s14.35-4.36,23.53-4.36s17.03,1.45,23.53,4.36s11.45,7.15,14.85,12.71
				c3.4,5.57,5.09,12.26,5.09,20.07v14.29c0,7.87-1.7,14.58-5.09,20.15s-8.35,9.82-14.85,12.75c-6.5,2.94-14.35,4.4-23.53,4.4
				S2594.29,2285.27,2587.79,2282.34z M2623.74,2260.77c2.98-2.69,4.46-6.47,4.46-11.34v-14.29c0-4.82-1.49-8.56-4.46-11.22
				c-2.98-2.66-7.15-3.99-12.52-3.99c-5.31,0-9.43,1.33-12.37,3.99c-2.94,2.66-4.42,6.4-4.42,11.22v14.29
				c0,4.88,1.46,8.66,4.37,11.34c2.91,2.69,7.05,4.03,12.42,4.03C2616.59,2264.8,2620.76,2263.46,2623.74,2260.77z"/>
			<path class="st4" d="M2664.15,2199.24h26.59v86.25h-26.59V2199.24z M2678.42,2232.56h61.82v21.11h-61.82V2232.56z
				 M2724.9,2199.24h26.59v86.25h-26.59V2199.24z"/>
			<path class="st4" d="M2759.68,2264.39h98.89v21.11h-98.89V2264.39z M2759.68,2264.39h23.68v42.79h-23.68V2264.39z
				 M2763.37,2264.39h2.33c3.36,0,5.87-0.87,7.52-2.62c1.65-1.75,2.73-4.22,3.25-7.44c0.52-3.21,0.78-7.59,0.78-13.13v-41.96h26.59
				v47.61c0,9.14-2.7,16.07-8.1,20.77c-5.4,4.71-13.15,7.06-23.24,7.06h-2.33L2763.37,2264.39z M2788.6,2199.24h48.62v21.11h-48.62
				V2199.24z M2826.74,2199.24h26.59v86.25h-26.59V2199.24z M2843.14,2264.39h23.68v42.79h-23.68V2264.39z"/>
		</g>
	</g>
</g>
</svg>
